<mxfile host="app.diagrams.net" modified="2024-03-16T07:31:23.917Z" agent="Mozilla/5.0 (Macintosh; Intel Mac OS X 10_15_7) AppleWebKit/537.36 (KHTML, like Gecko) Chrome/120.0.0.0 Whale/3.24.223.18 Safari/537.36" etag="pYlGKdr7Y3FxPUDpNpnu" version="24.0.0" type="github">
  <diagram name="페이지-1" id="Xa38Sybxr32NkZHonVsy">
    <mxGraphModel dx="524" dy="997" grid="1" gridSize="10" guides="1" tooltips="1" connect="1" arrows="1" fold="1" page="1" pageScale="1" pageWidth="1169" pageHeight="827" math="0" shadow="0">
      <root>
        <mxCell id="0" />
        <mxCell id="1" parent="0" />
        <mxCell id="6sP4UX1wq_M-0LHoDDBt-13" style="edgeStyle=orthogonalEdgeStyle;rounded=0;orthogonalLoop=1;jettySize=auto;html=1;entryX=0;entryY=0.5;entryDx=0;entryDy=0;" edge="1" parent="1" source="6sP4UX1wq_M-0LHoDDBt-2" target="6sP4UX1wq_M-0LHoDDBt-3">
          <mxGeometry relative="1" as="geometry" />
        </mxCell>
        <mxCell id="6sP4UX1wq_M-0LHoDDBt-2" value="Test Producer" style="rounded=1;whiteSpace=wrap;html=1;fillColor=#fff2cc;strokeColor=#d6b656;" vertex="1" parent="1">
          <mxGeometry x="240" y="80" width="100" height="40" as="geometry" />
        </mxCell>
        <mxCell id="6sP4UX1wq_M-0LHoDDBt-14" style="edgeStyle=orthogonalEdgeStyle;rounded=0;orthogonalLoop=1;jettySize=auto;html=1;entryX=0.5;entryY=0;entryDx=0;entryDy=0;" edge="1" parent="1" source="6sP4UX1wq_M-0LHoDDBt-3" target="6sP4UX1wq_M-0LHoDDBt-4">
          <mxGeometry relative="1" as="geometry" />
        </mxCell>
        <mxCell id="6sP4UX1wq_M-0LHoDDBt-3" value="inbound Topic" style="rounded=1;whiteSpace=wrap;html=1;fillColor=#e1d5e7;strokeColor=#9673a6;" vertex="1" parent="1">
          <mxGeometry x="420" y="70" width="100" height="60" as="geometry" />
        </mxCell>
        <mxCell id="6sP4UX1wq_M-0LHoDDBt-21" style="edgeStyle=orthogonalEdgeStyle;rounded=0;orthogonalLoop=1;jettySize=auto;html=1;entryX=1;entryY=0.5;entryDx=0;entryDy=0;" edge="1" parent="1" source="6sP4UX1wq_M-0LHoDDBt-4" target="6sP4UX1wq_M-0LHoDDBt-8">
          <mxGeometry relative="1" as="geometry" />
        </mxCell>
        <mxCell id="6sP4UX1wq_M-0LHoDDBt-4" value="Application&lt;div&gt;(Consumer, Producer)&lt;/div&gt;" style="rounded=1;whiteSpace=wrap;html=1;fillColor=#dae8fc;strokeColor=#6c8ebf;" vertex="1" parent="1">
          <mxGeometry x="405" y="170" width="130" height="60" as="geometry" />
        </mxCell>
        <mxCell id="6sP4UX1wq_M-0LHoDDBt-19" style="edgeStyle=orthogonalEdgeStyle;rounded=0;orthogonalLoop=1;jettySize=auto;html=1;exitX=0.5;exitY=1;exitDx=0;exitDy=0;entryX=0.5;entryY=0;entryDx=0;entryDy=0;" edge="1" parent="1" source="6sP4UX1wq_M-0LHoDDBt-5" target="6sP4UX1wq_M-0LHoDDBt-12">
          <mxGeometry relative="1" as="geometry" />
        </mxCell>
        <mxCell id="6sP4UX1wq_M-0LHoDDBt-20" style="edgeStyle=orthogonalEdgeStyle;rounded=0;orthogonalLoop=1;jettySize=auto;html=1;entryX=1;entryY=0.5;entryDx=0;entryDy=0;" edge="1" parent="1" source="6sP4UX1wq_M-0LHoDDBt-5" target="6sP4UX1wq_M-0LHoDDBt-11">
          <mxGeometry relative="1" as="geometry" />
        </mxCell>
        <mxCell id="6sP4UX1wq_M-0LHoDDBt-5" value="Outbound Topic 2" style="rounded=1;whiteSpace=wrap;html=1;fillColor=#e1d5e7;strokeColor=#9673a6;" vertex="1" parent="1">
          <mxGeometry x="230" y="330" width="120" height="60" as="geometry" />
        </mxCell>
        <mxCell id="6sP4UX1wq_M-0LHoDDBt-17" style="edgeStyle=orthogonalEdgeStyle;rounded=0;orthogonalLoop=1;jettySize=auto;html=1;entryX=0;entryY=0.5;entryDx=0;entryDy=0;" edge="1" parent="1" source="6sP4UX1wq_M-0LHoDDBt-6" target="6sP4UX1wq_M-0LHoDDBt-9">
          <mxGeometry relative="1" as="geometry" />
        </mxCell>
        <mxCell id="6sP4UX1wq_M-0LHoDDBt-18" style="edgeStyle=orthogonalEdgeStyle;rounded=0;orthogonalLoop=1;jettySize=auto;html=1;entryX=0.5;entryY=0;entryDx=0;entryDy=0;" edge="1" parent="1" source="6sP4UX1wq_M-0LHoDDBt-6" target="6sP4UX1wq_M-0LHoDDBt-10">
          <mxGeometry relative="1" as="geometry" />
        </mxCell>
        <mxCell id="6sP4UX1wq_M-0LHoDDBt-6" value="Outbound Topic 1" style="rounded=1;whiteSpace=wrap;html=1;fillColor=#e1d5e7;strokeColor=#9673a6;" vertex="1" parent="1">
          <mxGeometry x="410" y="330" width="120" height="60" as="geometry" />
        </mxCell>
        <mxCell id="6sP4UX1wq_M-0LHoDDBt-8" value="Third Party Service" style="rounded=1;whiteSpace=wrap;html=1;fillColor=#f8cecc;strokeColor=#b85450;" vertex="1" parent="1">
          <mxGeometry x="240" y="180" width="100" height="40" as="geometry" />
        </mxCell>
        <mxCell id="6sP4UX1wq_M-0LHoDDBt-9" value="Test Consumer&lt;div&gt;READ_COMMITTED&lt;/div&gt;" style="rounded=1;whiteSpace=wrap;html=1;fillColor=#fff2cc;strokeColor=#d6b656;" vertex="1" parent="1">
          <mxGeometry x="585" y="330" width="120" height="60" as="geometry" />
        </mxCell>
        <mxCell id="6sP4UX1wq_M-0LHoDDBt-10" value="Test Consumer&lt;div&gt;READ_UNCOMMITTED&lt;/div&gt;" style="rounded=1;whiteSpace=wrap;html=1;fillColor=#fff2cc;strokeColor=#d6b656;" vertex="1" parent="1">
          <mxGeometry x="400" y="440" width="140" height="60" as="geometry" />
        </mxCell>
        <mxCell id="6sP4UX1wq_M-0LHoDDBt-11" value="Test Consumer&lt;div&gt;READ_COMMITTED&lt;/div&gt;" style="rounded=1;whiteSpace=wrap;html=1;fillColor=#fff2cc;strokeColor=#d6b656;" vertex="1" parent="1">
          <mxGeometry x="60" y="330" width="120" height="60" as="geometry" />
        </mxCell>
        <mxCell id="6sP4UX1wq_M-0LHoDDBt-12" value="Test Consumer&lt;div&gt;READ_UNCOMMITTED&lt;/div&gt;" style="rounded=1;whiteSpace=wrap;html=1;fillColor=#fff2cc;strokeColor=#d6b656;" vertex="1" parent="1">
          <mxGeometry x="220" y="440" width="140" height="60" as="geometry" />
        </mxCell>
        <mxCell id="6sP4UX1wq_M-0LHoDDBt-15" style="edgeStyle=orthogonalEdgeStyle;rounded=0;orthogonalLoop=1;jettySize=auto;html=1;" edge="1" parent="1" source="6sP4UX1wq_M-0LHoDDBt-4">
          <mxGeometry relative="1" as="geometry">
            <mxPoint x="470" y="330" as="targetPoint" />
          </mxGeometry>
        </mxCell>
        <mxCell id="6sP4UX1wq_M-0LHoDDBt-16" style="edgeStyle=orthogonalEdgeStyle;rounded=0;orthogonalLoop=1;jettySize=auto;html=1;" edge="1" parent="1" source="6sP4UX1wq_M-0LHoDDBt-4">
          <mxGeometry relative="1" as="geometry">
            <mxPoint x="290" y="330" as="targetPoint" />
            <Array as="points">
              <mxPoint x="470" y="280" />
              <mxPoint x="290" y="280" />
            </Array>
          </mxGeometry>
        </mxCell>
        <mxCell id="6sP4UX1wq_M-0LHoDDBt-23" value="&lt;b&gt;1&lt;/b&gt;" style="text;html=1;align=center;verticalAlign=middle;whiteSpace=wrap;rounded=0;" vertex="1" parent="1">
          <mxGeometry x="460" y="290" width="60" height="30" as="geometry" />
        </mxCell>
        <mxCell id="6sP4UX1wq_M-0LHoDDBt-24" value="&lt;b&gt;2&lt;/b&gt;" style="text;html=1;align=center;verticalAlign=middle;whiteSpace=wrap;rounded=0;" vertex="1" parent="1">
          <mxGeometry x="350" y="170" width="60" height="30" as="geometry" />
        </mxCell>
        <mxCell id="6sP4UX1wq_M-0LHoDDBt-25" value="&lt;b&gt;3&lt;/b&gt;" style="text;html=1;align=center;verticalAlign=middle;whiteSpace=wrap;rounded=0;" vertex="1" parent="1">
          <mxGeometry x="280" y="290" width="60" height="30" as="geometry" />
        </mxCell>
      </root>
    </mxGraphModel>
  </diagram>
</mxfile>
